# xmcd
#
# Track frame offsets:
#	150
#	14265
#	28277
#	50920
#	60452
#	74352
#	86217
#	100454
#	111421
#	122668
#	136908
#	150263
#	161964
#	177030
#	191316
#	208550
#	223462
#	236318
#	246692
#
# Disc length: 3495 seconds
#
# Revision: 1
# Processed by: cddbd v1.5.2PL0 Copyright (c) Steve Scherf et al.
# Submitted via: EasyCDDAExtractor 2010.6.0.0
#
DISCID=1c0da513
DTITLE=Various Artist - Midnight Soul [CD2]
DYEAR=2006
DGENRE=Motown
TTITLE0=The Originals - The Bells
TTITLE1=Tammi Terrell - Thats What Boys Are Made For
TTITLE2=The Supremes - Dont Let My Teardrops Bother You
TTITLE3=The Isley Brothers - Nevermore
TTITLE4=Barbara McNair - The Shadow Of Your Smile
TTITLE5=Brenda Holloway - Sad Song
TTITLE6=Marvin Gaye - Night Life
TTITLE7=Saundra Mallet and the Vandellas - Its Gonna Be Hard Times
TTITLE8=Billy Exkstine - Prime Of My Life
TTITLE9=The Four Tops - Just Seven Numbers
TTITLE10=The Temptations - Its Growing
TTITLE11=The Four Tops - What Is A Man
TTITLE12=The Supremes - Up The Ladder To The Roof
TTITLE13=David Ruffin - Common Man
TTITLE14=Gladys Night And The Pips - Make Me The Woman You Go Home To
TTITLE15=The Originals - God Bless Whoever Sent You
TTITLE16=The Marvelettes - The Hunter Gets Captured By The Game
TTITLE17=The Isley Brothers - One Too Many Heartaches
TTITLE18=David Ruffin - Just Let Me Hold You For A Night
EXTD=YEAR: 2006
EXTT0=
EXTT1=
EXTT2=
EXTT3=
EXTT4=
EXTT5=
EXTT6=
EXTT7=
EXTT8=
EXTT9=
EXTT10=
EXTT11=
EXTT12=
EXTT13=
EXTT14=
EXTT15=
EXTT16=
EXTT17=
EXTT18=
PLAYORDER=
